<svg width="18" height="18" viewBox="0 0 18 18" fill="none" xmlns="http://www.w3.org/2000/svg">
<path d="M2.50459 12.7503C2.18041 12.1887 1.93708 11.6028 1.771 11.0057C2.50035 10.6335 2.99979 9.87522 2.99979 9.00027C2.99979 8.126 2.5011 7.36812 1.77265 6.99568C2.10769 5.7875 2.74393 4.66232 3.64855 3.74263C4.33552 4.18824 5.24201 4.24163 5.99979 3.80412C6.75757 3.36662 7.16458 2.55488 7.12215 1.73715C8.37097 1.41357 9.66352 1.42515 10.8773 1.73909C10.8356 2.55617 11.2426 3.36696 11.9998 3.80412C12.7576 4.24161 13.664 4.18824 14.3509 3.74267C14.785 4.18502 15.1708 4.68875 15.495 5.25028C15.8191 5.8118 16.0625 6.39781 16.2286 6.99483C15.4992 7.36697 14.9998 8.12532 14.9998 9.00027C14.9998 9.87462 15.4984 10.6324 16.2269 11.0049C15.8919 12.213 15.2557 13.3382 14.351 14.2579C13.664 13.8123 12.7576 13.7589 11.9998 14.1964C11.242 14.6339 10.835 15.4457 10.8774 16.2634C9.62865 16.587 8.3361 16.5754 7.12225 16.2615C7.16393 15.4443 6.75697 14.6336 5.99979 14.1964C5.24203 13.7589 4.33559 13.8123 3.64863 14.2578C3.21463 13.8155 2.82879 13.3118 2.50459 12.7503ZM6.74979 12.8974C7.56832 13.37 8.15617 14.1171 8.43772 14.9745C8.81145 15.0101 9.18765 15.0106 9.56145 14.9757C9.84285 14.1179 10.4308 13.3702 11.2498 12.8974C12.0687 12.4245 13.0102 12.2892 13.8939 12.4744C14.1109 12.1681 14.2986 11.842 14.4547 11.5006C13.8529 10.8281 13.4998 9.94542 13.4998 9.00027C13.4998 8.05512 13.8529 7.17252 14.4547 6.5C14.3766 6.3305 14.2903 6.16379 14.1959 6.00028C14.1015 5.83676 14.0002 5.67873 13.8925 5.52644C13.0093 5.71119 12.0683 5.57573 11.2498 5.10316C10.4312 4.63058 9.84345 3.88338 9.56182 3.02603C9.18817 2.99048 8.8119 2.98997 8.43817 3.02481C8.1567 3.88265 7.5687 4.63035 6.74979 5.10316C5.93085 5.57597 4.98934 5.71133 4.10571 5.52614C3.88864 5.83243 3.70097 6.1585 3.54492 6.4999C4.14661 7.17245 4.49979 8.05512 4.49979 9.00027C4.49979 9.94542 4.14662 10.828 3.54492 11.5005C3.623 11.67 3.70923 11.8368 3.80364 12.0003C3.89804 12.1638 3.9993 12.3218 4.10709 12.4741C4.99033 12.2894 5.93128 12.4248 6.74979 12.8974ZM8.99977 11.2503C7.75717 11.2503 6.74979 10.2429 6.74979 9.00027C6.74979 7.75767 7.75717 6.75028 8.99977 6.75028C10.2424 6.75028 11.2498 7.75767 11.2498 9.00027C11.2498 10.2429 10.2424 11.2503 8.99977 11.2503ZM8.99977 9.75027C9.414 9.75027 9.74977 9.4145 9.74977 9.00027C9.74977 8.58605 9.414 8.25027 8.99977 8.25027C8.58555 8.25027 8.24977 8.58605 8.24977 9.00027C8.24977 9.4145 8.58555 9.75027 8.99977 9.75027Z" fill="white" fill-opacity="0.6"/>
</svg>
