<svg width="131" height="42" viewBox="0 0 131 42" fill="none" xmlns="http://www.w3.org/2000/svg">
<rect x="57" width="74" height="17" rx="4" fill="#353935"/>
<path d="M63.294 12V4.72727H67.6832V5.50852H64.1746V7.96591H67.4559V8.74716H64.1746V11.2188H67.74V12H63.294ZM69.9819 6.54545L71.2887 8.77557L72.5955 6.54545H73.5614L71.8001 9.27273L73.5614 12H72.5955L71.2887 9.88352L69.9819 12H69.016L70.7489 9.27273L69.016 6.54545H69.9819ZM74.9573 14.0455V6.54545H75.7669V7.41193H75.8664C75.9279 7.31723 76.0131 7.1965 76.1221 7.04972C76.2333 6.90057 76.3919 6.76799 76.5979 6.65199C76.8062 6.53362 77.088 6.47443 77.4431 6.47443C77.9024 6.47443 78.3072 6.58925 78.6576 6.81889C79.0079 7.04853 79.2814 7.37405 79.4779 7.79545C79.6744 8.21686 79.7726 8.71402 79.7726 9.28693C79.7726 9.86458 79.6744 10.3653 79.4779 10.7891C79.2814 11.2105 79.0091 11.5372 78.6611 11.7692C78.3131 11.9988 77.9118 12.1136 77.4573 12.1136C77.1069 12.1136 76.8264 12.0556 76.6157 11.9396C76.405 11.8213 76.2428 11.6875 76.1292 11.5384C76.0155 11.3868 75.9279 11.2614 75.8664 11.1619H75.7953V14.0455H74.9573ZM75.7811 9.27273C75.7811 9.68466 75.8415 10.0481 75.9623 10.3629C76.083 10.6754 76.2594 10.9205 76.4914 11.098C76.7234 11.2732 77.0075 11.3608 77.3436 11.3608C77.694 11.3608 77.9864 11.2685 78.2208 11.0838C78.4575 10.8968 78.6351 10.6458 78.7534 10.331C78.8742 10.0137 78.9346 9.66098 78.9346 9.27273C78.9346 8.8892 78.8754 8.54356 78.757 8.2358C78.641 7.92566 78.4646 7.68063 78.2279 7.50071C77.9935 7.31842 77.6988 7.22727 77.3436 7.22727C77.0027 7.22727 76.7163 7.31368 76.4843 7.48651C76.2523 7.65696 76.0771 7.89607 75.9587 8.20384C75.8403 8.50923 75.7811 8.86553 75.7811 9.27273ZM83.538 12.1136C83.0124 12.1136 82.559 11.9976 82.1779 11.7656C81.7991 11.5312 81.5067 11.2045 81.3007 10.7855C81.0971 10.3641 80.9953 9.87405 80.9953 9.31534C80.9953 8.75663 81.0971 8.2642 81.3007 7.83807C81.5067 7.40956 81.7932 7.07576 82.1601 6.83665C82.5294 6.59517 82.9603 6.47443 83.4527 6.47443C83.7368 6.47443 84.0174 6.52178 84.2944 6.61648C84.5713 6.71117 84.8235 6.86506 85.0507 7.07812C85.278 7.28883 85.4591 7.56818 85.5941 7.91619C85.729 8.2642 85.7965 8.69271 85.7965 9.2017V9.55682H81.5919V8.83239H84.9442C84.9442 8.52462 84.8827 8.25 84.7596 8.00852C84.6388 7.76705 84.466 7.57647 84.2411 7.43679C84.0185 7.29711 83.7558 7.22727 83.4527 7.22727C83.1189 7.22727 82.8301 7.31013 82.5863 7.47585C82.3448 7.6392 82.1589 7.85227 82.0287 8.11506C81.8985 8.37784 81.8334 8.65956 81.8334 8.96023V9.44318C81.8334 9.85511 81.9044 10.2043 82.0465 10.4908C82.1909 10.7749 82.3909 10.9915 82.6466 11.1406C82.9023 11.2874 83.1994 11.3608 83.538 11.3608C83.7581 11.3608 83.957 11.33 84.1346 11.2685C84.3145 11.2045 84.4695 11.1098 84.5998 10.9844C84.73 10.8565 84.8306 10.6979 84.9016 10.5085L85.7113 10.7358C85.626 11.0104 85.4828 11.2519 85.2816 11.4602C85.0803 11.6662 84.8318 11.8272 84.5358 11.9432C84.2399 12.0568 83.9073 12.1136 83.538 12.1136ZM87.2713 12V6.54545H88.081V7.36932H88.1378C88.2372 7.09943 88.4172 6.88045 88.6776 6.71236C88.938 6.54427 89.2316 6.46023 89.5583 6.46023C89.6198 6.46023 89.6968 6.46141 89.7891 6.46378C89.8814 6.46615 89.9513 6.4697 89.9986 6.47443V7.3267C89.9702 7.3196 89.9051 7.30895 89.8033 7.29474C89.7039 7.27817 89.5985 7.26989 89.4873 7.26989C89.2221 7.26989 88.9854 7.32552 88.777 7.43679C88.5711 7.54569 88.4077 7.69721 88.287 7.89134C88.1686 8.0831 88.1094 8.30208 88.1094 8.5483V12H87.2713ZM91.192 12V6.54545H92.0301V12H91.192ZM91.6182 5.63636C91.4548 5.63636 91.314 5.58073 91.1956 5.46946C91.0796 5.35819 91.0216 5.22443 91.0216 5.06818C91.0216 4.91193 91.0796 4.77817 91.1956 4.6669C91.314 4.55563 91.4548 4.5 91.6182 4.5C91.7815 4.5 91.9212 4.55563 92.0372 4.6669C92.1556 4.77817 92.2148 4.91193 92.2148 5.06818C92.2148 5.22443 92.1556 5.35819 92.0372 5.46946C91.9212 5.58073 91.7815 5.63636 91.6182 5.63636ZM93.7651 12V6.54545H94.5748V7.39773H94.6458C94.7594 7.10653 94.9429 6.88045 95.1962 6.71946C95.4495 6.55611 95.7537 6.47443 96.1088 6.47443C96.4687 6.47443 96.7682 6.55611 97.0073 6.71946C97.2488 6.88045 97.437 7.10653 97.5719 7.39773H97.6287C97.7684 7.116 97.9779 6.89228 98.2573 6.72656C98.5366 6.55848 98.8716 6.47443 99.2623 6.47443C99.7499 6.47443 100.149 6.62713 100.459 6.93253C100.769 7.23556 100.924 7.70786 100.924 8.34943V12H100.086V8.34943C100.086 7.94697 99.976 7.65933 99.7559 7.48651C99.5357 7.31368 99.2765 7.22727 98.9782 7.22727C98.5946 7.22727 98.2975 7.34328 98.0868 7.57528C97.8761 7.80492 97.7708 8.09612 97.7708 8.44886V12H96.9185V8.2642C96.9185 7.95407 96.8179 7.70431 96.6167 7.51491C96.4154 7.32315 96.1562 7.22727 95.839 7.22727C95.6212 7.22727 95.4176 7.28527 95.2282 7.40128C95.0411 7.51728 94.8896 7.67827 94.7736 7.88423C94.66 8.08783 94.6032 8.32339 94.6032 8.59091V12H93.7651ZM104.943 12.1136C104.418 12.1136 103.965 11.9976 103.583 11.7656C103.205 11.5312 102.912 11.2045 102.706 10.7855C102.503 10.3641 102.401 9.87405 102.401 9.31534C102.401 8.75663 102.503 8.2642 102.706 7.83807C102.912 7.40956 103.199 7.07576 103.566 6.83665C103.935 6.59517 104.366 6.47443 104.858 6.47443C105.142 6.47443 105.423 6.52178 105.7 6.61648C105.977 6.71117 106.229 6.86506 106.456 7.07812C106.683 7.28883 106.865 7.56818 107 7.91619C107.134 8.2642 107.202 8.69271 107.202 9.2017V9.55682H102.997V8.83239H106.35C106.35 8.52462 106.288 8.25 106.165 8.00852C106.044 7.76705 105.871 7.57647 105.647 7.43679C105.424 7.29711 105.161 7.22727 104.858 7.22727C104.524 7.22727 104.236 7.31013 103.992 7.47585C103.75 7.6392 103.564 7.85227 103.434 8.11506C103.304 8.37784 103.239 8.65956 103.239 8.96023V9.44318C103.239 9.85511 103.31 10.2043 103.452 10.4908C103.596 10.7749 103.796 10.9915 104.052 11.1406C104.308 11.2874 104.605 11.3608 104.943 11.3608C105.164 11.3608 105.362 11.33 105.54 11.2685C105.72 11.2045 105.875 11.1098 106.005 10.9844C106.135 10.8565 106.236 10.6979 106.307 10.5085L107.117 10.7358C107.031 11.0104 106.888 11.2519 106.687 11.4602C106.486 11.6662 106.237 11.8272 105.941 11.9432C105.645 12.0568 105.313 12.1136 104.943 12.1136ZM109.515 8.71875V12H108.677V6.54545H109.486V7.39773H109.557C109.685 7.12074 109.879 6.8982 110.14 6.73011C110.4 6.55966 110.736 6.47443 111.148 6.47443C111.518 6.47443 111.841 6.55019 112.118 6.7017C112.395 6.85085 112.61 7.07812 112.764 7.38352C112.918 7.68655 112.995 8.07008 112.995 8.53409V12H112.157V8.59091C112.157 8.16241 112.046 7.8286 111.823 7.58949C111.601 7.34801 111.295 7.22727 110.907 7.22727C110.639 7.22727 110.4 7.28527 110.19 7.40128C109.981 7.51728 109.817 7.68655 109.696 7.90909C109.575 8.13163 109.515 8.40152 109.515 8.71875ZM117.099 6.54545V7.25568H114.272V6.54545H117.099ZM115.096 5.23864H115.934V10.4375C115.934 10.6742 115.968 10.8518 116.037 10.9702C116.108 11.0862 116.198 11.1643 116.307 11.2045C116.418 11.2424 116.535 11.2614 116.658 11.2614C116.751 11.2614 116.826 11.2566 116.886 11.2472C116.945 11.2353 116.992 11.2259 117.028 11.2188L117.198 11.9716C117.141 11.9929 117.062 12.0142 116.96 12.0355C116.858 12.0592 116.729 12.071 116.573 12.071C116.336 12.071 116.104 12.0201 115.877 11.9183C115.652 11.8165 115.465 11.6615 115.316 11.4531C115.169 11.2448 115.096 10.982 115.096 10.6648V5.23864ZM120.164 12.1278C119.819 12.1278 119.505 12.0627 119.223 11.9325C118.942 11.8 118.718 11.6094 118.552 11.3608C118.386 11.1098 118.304 10.8068 118.304 10.4517C118.304 10.1392 118.365 9.88589 118.488 9.69176C118.611 9.49527 118.776 9.34138 118.982 9.23011C119.188 9.11884 119.415 9.03598 119.664 8.98153C119.915 8.92472 120.167 8.87973 120.42 8.84659C120.751 8.80398 121.02 8.77202 121.226 8.75071C121.434 8.72704 121.586 8.68797 121.681 8.63352C121.778 8.57907 121.826 8.48437 121.826 8.34943V8.32102C121.826 7.97064 121.73 7.69839 121.539 7.50426C121.349 7.31013 121.062 7.21307 120.676 7.21307C120.276 7.21307 119.962 7.30066 119.735 7.47585C119.507 7.65104 119.348 7.83807 119.255 8.03693L118.46 7.75284C118.602 7.4214 118.791 7.16335 119.028 6.97869C119.267 6.79167 119.528 6.66146 119.809 6.58807C120.093 6.51231 120.373 6.47443 120.647 6.47443C120.822 6.47443 121.024 6.49574 121.251 6.53835C121.481 6.5786 121.702 6.66264 121.915 6.79048C122.13 6.91832 122.309 7.11127 122.451 7.36932C122.593 7.62737 122.664 7.97301 122.664 8.40625V12H121.826V11.2614H121.784C121.727 11.3797 121.632 11.5064 121.5 11.6413C121.367 11.7763 121.191 11.8911 120.97 11.9858C120.75 12.0805 120.482 12.1278 120.164 12.1278ZM120.292 11.375C120.624 11.375 120.903 11.3099 121.13 11.1797C121.36 11.0495 121.533 10.8814 121.649 10.6754C121.767 10.4695 121.826 10.2528 121.826 10.0256V9.25852C121.791 9.30114 121.713 9.3402 121.592 9.37571C121.474 9.40885 121.336 9.43845 121.18 9.46449C121.026 9.48816 120.876 9.50947 120.729 9.52841C120.585 9.54498 120.467 9.55919 120.377 9.57102C120.16 9.59943 119.956 9.6456 119.767 9.70952C119.58 9.77107 119.428 9.86458 119.312 9.99006C119.198 10.1132 119.142 10.2812 119.142 10.4943C119.142 10.7855 119.249 11.0057 119.465 11.1548C119.683 11.3016 119.958 11.375 120.292 11.375ZM125.232 4.72727V12H124.394V4.72727H125.232Z" fill="white" fill-opacity="0.8"/>
<path d="M6.42045 37H1.2642V22.4545H6.46307C7.92614 22.4545 9.18561 22.7457 10.2415 23.3281C11.2973 23.9058 12.1094 24.7367 12.6776 25.821C13.2505 26.9053 13.5369 28.2027 13.5369 29.7131C13.5369 31.2282 13.2505 32.5303 12.6776 33.6193C12.1094 34.7083 11.2926 35.544 10.2273 36.1264C9.16667 36.7088 7.89773 37 6.42045 37ZM4.33949 34.3651H6.29261C7.2017 34.3651 7.96638 34.2041 8.58665 33.8821C9.21165 33.5554 9.6804 33.0511 9.9929 32.3693C10.3101 31.6828 10.4688 30.7973 10.4688 29.7131C10.4688 28.6383 10.3101 27.7599 9.9929 27.0781C9.6804 26.3963 9.21402 25.8944 8.59375 25.5724C7.97348 25.2505 7.20881 25.0895 6.29972 25.0895H4.33949V34.3651ZM20.6871 37.2131C19.5839 37.2131 18.6299 36.9787 17.8249 36.5099C17.0247 36.0365 16.4068 35.3783 15.9712 34.5355C15.5356 33.688 15.3178 32.7055 15.3178 31.5881C15.3178 30.4612 15.5356 29.4763 15.9712 28.6335C16.4068 27.786 17.0247 27.1278 17.8249 26.6591C18.6299 26.1856 19.5839 25.9489 20.6871 25.9489C21.7904 25.9489 22.7421 26.1856 23.5423 26.6591C24.3472 27.1278 24.9674 27.786 25.4031 28.6335C25.8387 29.4763 26.0565 30.4612 26.0565 31.5881C26.0565 32.7055 25.8387 33.688 25.4031 34.5355C24.9674 35.3783 24.3472 36.0365 23.5423 36.5099C22.7421 36.9787 21.7904 37.2131 20.6871 37.2131ZM20.7013 34.8693C21.2032 34.8693 21.6223 34.7273 21.9585 34.4432C22.2946 34.1544 22.5479 33.7614 22.7184 33.2642C22.8936 32.767 22.9812 32.2012 22.9812 31.5668C22.9812 30.9323 22.8936 30.3665 22.7184 29.8693C22.5479 29.3722 22.2946 28.9792 21.9585 28.6903C21.6223 28.4015 21.2032 28.2571 20.7013 28.2571C20.1947 28.2571 19.7686 28.4015 19.4229 28.6903C19.082 28.9792 18.824 29.3722 18.6488 29.8693C18.4783 30.3665 18.3931 30.9323 18.3931 31.5668C18.3931 32.2012 18.4783 32.767 18.6488 33.2642C18.824 33.7614 19.082 34.1544 19.4229 34.4432C19.7686 34.7273 20.1947 34.8693 20.7013 34.8693ZM35.0195 32.3551V26.0909H38.0451V37H35.1403V35.0185H35.0266C34.7804 35.6577 34.3709 36.1714 33.7979 36.5597C33.2298 36.9479 32.5361 37.142 31.717 37.142C30.9878 37.142 30.3462 36.9763 29.7923 36.6449C29.2383 36.3134 28.805 35.8423 28.4925 35.2315C28.1848 34.6207 28.0285 33.8892 28.0238 33.0369V26.0909H31.0494V32.4972C31.0541 33.1411 31.2269 33.6501 31.5678 34.0241C31.9087 34.3982 32.3656 34.5852 32.9386 34.5852C33.3031 34.5852 33.6441 34.5024 33.9613 34.3366C34.2785 34.1662 34.5342 33.9152 34.7283 33.5838C34.9272 33.2524 35.0243 32.8428 35.0195 32.3551ZM40.522 37V22.4545H43.5476V27.9233H43.6399C43.7725 27.6297 43.9643 27.3314 44.2152 27.0284C44.4709 26.7206 44.8023 26.465 45.2095 26.2614C45.6214 26.053 46.1328 25.9489 46.7436 25.9489C47.5391 25.9489 48.273 26.1572 48.9453 26.5739C49.6177 26.9858 50.1551 27.6084 50.5575 28.4418C50.96 29.2704 51.1612 30.3097 51.1612 31.5597C51.1612 32.7765 50.9647 33.804 50.5717 34.642C50.1835 35.4754 49.6532 36.1075 48.9808 36.5384C48.3132 36.9645 47.5651 37.1776 46.7365 37.1776C46.1494 37.1776 45.6499 37.0805 45.2379 36.8864C44.8307 36.6922 44.4969 36.4484 44.2365 36.1548C43.9761 35.8565 43.7772 35.5559 43.6399 35.2528H43.505V37H40.522ZM43.4837 31.5455C43.4837 32.1941 43.5736 32.7599 43.7536 33.2429C43.9335 33.7259 44.1939 34.1023 44.5348 34.3722C44.8757 34.6373 45.29 34.7699 45.7777 34.7699C46.2701 34.7699 46.6868 34.6349 47.0277 34.3651C47.3686 34.0904 47.6267 33.7116 47.8018 33.2287C47.9818 32.741 48.0717 32.1799 48.0717 31.5455C48.0717 30.9157 47.9841 30.3617 47.8089 29.8835C47.6338 29.4053 47.3757 29.0312 47.0348 28.7614C46.6939 28.4915 46.2749 28.3565 45.7777 28.3565C45.2853 28.3565 44.8686 28.4867 44.5277 28.7472C44.1915 29.0076 43.9335 29.3769 43.7536 29.8551C43.5736 30.3333 43.4837 30.8968 43.4837 31.5455ZM58.9826 26.0909V28.3636H52.413V26.0909H58.9826ZM53.9045 23.4773H56.93V33.6477C56.93 33.9271 56.9727 34.1449 57.0579 34.3011C57.1431 34.4527 57.2615 34.5592 57.413 34.6207C57.5692 34.6823 57.7492 34.7131 57.9528 34.7131C58.0948 34.7131 58.2369 34.7012 58.3789 34.6776C58.521 34.6491 58.6299 34.6278 58.7056 34.6136L59.1815 36.8651C59.0299 36.9124 58.8169 36.9669 58.5423 37.0284C58.2676 37.0947 57.9338 37.1349 57.5408 37.1491C56.8117 37.1776 56.1725 37.0805 55.6232 36.858C55.0787 36.6354 54.6549 36.2898 54.3519 35.821C54.0489 35.3523 53.8997 34.7604 53.9045 34.0455V23.4773ZM69.8935 29.2017L67.1236 29.3722C67.0762 29.1354 66.9744 28.9223 66.8182 28.733C66.6619 28.5388 66.456 28.3849 66.2003 28.2713C65.9493 28.1529 65.6487 28.0938 65.2983 28.0938C64.8295 28.0938 64.4342 28.1932 64.1122 28.392C63.7902 28.5862 63.6293 28.8466 63.6293 29.1733C63.6293 29.4337 63.7334 29.6539 63.9418 29.8338C64.1501 30.0137 64.5076 30.1581 65.0142 30.267L66.9886 30.6648C68.0492 30.8826 68.84 31.233 69.3608 31.7159C69.8816 32.1989 70.142 32.8333 70.142 33.6193C70.142 34.3343 69.9313 34.9616 69.5099 35.5014C69.0933 36.0412 68.5204 36.4626 67.7912 36.7656C67.0668 37.0639 66.2311 37.2131 65.2841 37.2131C63.84 37.2131 62.6894 36.9124 61.8324 36.3111C60.9801 35.705 60.4806 34.8812 60.3338 33.8395L63.3097 33.6832C63.3996 34.1236 63.6174 34.4598 63.9631 34.6918C64.3087 34.919 64.7514 35.0327 65.2912 35.0327C65.8215 35.0327 66.2476 34.9309 66.5696 34.7273C66.8963 34.5189 67.062 34.2514 67.0668 33.9247C67.062 33.6501 66.946 33.4252 66.7188 33.25C66.4915 33.0701 66.1411 32.9328 65.6676 32.8381L63.7784 32.4616C62.7131 32.2486 61.92 31.8793 61.3991 31.3537C60.883 30.8281 60.625 30.1581 60.625 29.3438C60.625 28.643 60.8144 28.0393 61.1932 27.5327C61.5767 27.026 62.1141 26.6354 62.8054 26.3608C63.5014 26.0862 64.3158 25.9489 65.2486 25.9489C66.6264 25.9489 67.7107 26.2401 68.5014 26.8224C69.2969 27.4048 69.7609 28.1979 69.8935 29.2017ZM81.1239 29.2017L78.354 29.3722C78.3067 29.1354 78.2049 28.9223 78.0487 28.733C77.8924 28.5388 77.6864 28.3849 77.4308 28.2713C77.1798 28.1529 76.8791 28.0938 76.5288 28.0938C76.06 28.0938 75.6647 28.1932 75.3427 28.392C75.0207 28.5862 74.8597 28.8466 74.8597 29.1733C74.8597 29.4337 74.9639 29.6539 75.1722 29.8338C75.3806 30.0137 75.738 30.1581 76.2447 30.267L78.2191 30.6648C79.2797 30.8826 80.0704 31.233 80.5913 31.7159C81.1121 32.1989 81.3725 32.8333 81.3725 33.6193C81.3725 34.3343 81.1618 34.9616 80.7404 35.5014C80.3237 36.0412 79.7508 36.4626 79.0217 36.7656C78.2972 37.0639 77.4615 37.2131 76.5146 37.2131C75.0704 37.2131 73.9199 36.9124 73.0629 36.3111C72.2106 35.705 71.7111 34.8812 71.5643 33.8395L74.5401 33.6832C74.6301 34.1236 74.8479 34.4598 75.1935 34.6918C75.5392 34.919 75.9819 35.0327 76.5217 35.0327C77.052 35.0327 77.4781 34.9309 77.8001 34.7273C78.1268 34.5189 78.2925 34.2514 78.2972 33.9247C78.2925 33.6501 78.1765 33.4252 77.9492 33.25C77.7219 33.0701 77.3716 32.9328 76.8981 32.8381L75.0089 32.4616C73.9435 32.2486 73.1504 31.8793 72.6296 31.3537C72.1135 30.8281 71.8555 30.1581 71.8555 29.3438C71.8555 28.643 72.0449 28.0393 72.4237 27.5327C72.8072 27.026 73.3446 26.6354 74.0359 26.3608C74.7319 26.0862 75.5463 25.9489 76.479 25.9489C77.8569 25.9489 78.9412 26.2401 79.7319 26.8224C80.5273 27.4048 80.9914 28.1979 81.1239 29.2017ZM85.0462 37.1847C84.5774 37.1847 84.175 37.0189 83.8388 36.6875C83.5073 36.3513 83.3416 35.9489 83.3416 35.4801C83.3416 35.0161 83.5073 34.6184 83.8388 34.2869C84.175 33.9555 84.5774 33.7898 85.0462 33.7898C85.5007 33.7898 85.8984 33.9555 86.2393 34.2869C86.5803 34.6184 86.7507 35.0161 86.7507 35.4801C86.7507 35.7926 86.6702 36.0791 86.5092 36.3395C86.353 36.5952 86.147 36.8011 85.8913 36.9574C85.6357 37.1089 85.3539 37.1847 85.0462 37.1847ZM94.1637 37.2131C93.0463 37.2131 92.0851 36.9763 91.2802 36.5028C90.48 36.0246 89.8645 35.3617 89.4336 34.5142C89.0075 33.6667 88.7944 32.6913 88.7944 31.5881C88.7944 30.4706 89.0098 29.4905 89.4407 28.6477C89.8763 27.8002 90.4942 27.1397 91.2944 26.6662C92.0946 26.188 93.0463 25.9489 94.1495 25.9489C95.1012 25.9489 95.9345 26.1217 96.6495 26.4673C97.3645 26.813 97.9303 27.2983 98.3469 27.9233C98.7636 28.5483 98.9933 29.2822 99.0359 30.125H96.1808C96.1003 29.5805 95.8872 29.1425 95.5415 28.8111C95.2006 28.4749 94.7532 28.3068 94.1992 28.3068C93.7305 28.3068 93.3209 28.4347 92.9705 28.6903C92.6249 28.9413 92.355 29.3082 92.1609 29.7912C91.9667 30.2741 91.8697 30.8589 91.8697 31.5455C91.8697 32.2415 91.9644 32.8333 92.1538 33.321C92.3479 33.8087 92.6201 34.1804 92.9705 34.4361C93.3209 34.6918 93.7305 34.8196 94.1992 34.8196C94.5449 34.8196 94.855 34.7486 95.1296 34.6065C95.409 34.4645 95.6386 34.2585 95.8185 33.9886C96.0032 33.714 96.1239 33.3849 96.1808 33.0014H99.0359C98.9885 33.8348 98.7612 34.5687 98.354 35.2031C97.9516 35.8329 97.3952 36.3253 96.685 36.6804C95.9748 37.0355 95.1344 37.2131 94.1637 37.2131ZM105.902 37.2131C104.799 37.2131 103.845 36.9787 103.04 36.5099C102.24 36.0365 101.622 35.3783 101.186 34.5355C100.75 33.688 100.533 32.7055 100.533 31.5881C100.533 30.4612 100.75 29.4763 101.186 28.6335C101.622 27.786 102.24 27.1278 103.04 26.6591C103.845 26.1856 104.799 25.9489 105.902 25.9489C107.005 25.9489 107.957 26.1856 108.757 26.6591C109.562 27.1278 110.182 27.786 110.618 28.6335C111.054 29.4763 111.271 30.4612 111.271 31.5881C111.271 32.7055 111.054 33.688 110.618 34.5355C110.182 35.3783 109.562 36.0365 108.757 36.5099C107.957 36.9787 107.005 37.2131 105.902 37.2131ZM105.916 34.8693C106.418 34.8693 106.837 34.7273 107.173 34.4432C107.509 34.1544 107.763 33.7614 107.933 33.2642C108.108 32.767 108.196 32.2012 108.196 31.5668C108.196 30.9323 108.108 30.3665 107.933 29.8693C107.763 29.3722 107.509 28.9792 107.173 28.6903C106.837 28.4015 106.418 28.2571 105.916 28.2571C105.41 28.2571 104.983 28.4015 104.638 28.6903C104.297 28.9792 104.039 29.3722 103.864 29.8693C103.693 30.3665 103.608 30.9323 103.608 31.5668C103.608 32.2012 103.693 32.767 103.864 33.2642C104.039 33.7614 104.297 34.1544 104.638 34.4432C104.983 34.7273 105.41 34.8693 105.916 34.8693ZM113.239 37V26.0909H116.122V28.0156H116.25C116.477 27.3764 116.856 26.8722 117.386 26.5028C117.917 26.1335 118.551 25.9489 119.29 25.9489C120.038 25.9489 120.675 26.1359 121.2 26.5099C121.726 26.8793 122.076 27.3812 122.251 28.0156H122.365C122.588 27.3906 122.99 26.8911 123.572 26.517C124.16 26.1383 124.853 25.9489 125.653 25.9489C126.671 25.9489 127.498 26.2732 128.132 26.9219C128.771 27.5658 129.091 28.4796 129.091 29.6634V37H126.072V30.2599C126.072 29.6539 125.911 29.1993 125.589 28.8963C125.268 28.5933 124.865 28.4418 124.382 28.4418C123.833 28.4418 123.404 28.617 123.097 28.9673C122.789 29.313 122.635 29.7699 122.635 30.3381V37H119.702V30.196C119.702 29.661 119.548 29.2348 119.24 28.9176C118.937 28.6004 118.537 28.4418 118.04 28.4418C117.704 28.4418 117.401 28.527 117.131 28.6974C116.866 28.8632 116.655 29.0975 116.499 29.4006C116.342 29.6989 116.264 30.0492 116.264 30.4517V37H113.239Z" fill="#CCFF33"/>
</svg>
